<svg width="172" height="37" viewBox="0 0 172 37" fill="none" xmlns="http://www.w3.org/2000/svg">
<path fill-rule="evenodd" clip-rule="evenodd" d="M0 6.73365H5.16031V9.18101C6.34902 7.73217 7.90984 6.41185 10.5249 6.41185C12.9008 6.41185 14.6997 7.40988 15.6508 9.14888C17.2465 7.37774 19.1476 6.41185 21.6257 6.41185C25.4628 6.41185 27.7704 8.60118 27.7704 12.7559V23.9942H22.6101V14.3654C22.6101 12.047 21.5235 10.8557 19.5885 10.8557C17.6541 10.8557 16.4654 12.047 16.4654 14.3654V23.9942H11.305V14.3654C11.305 12.047 10.2185 10.8557 8.28349 10.8557C6.34902 10.8557 5.16031 12.047 5.16031 14.3654V23.9942H0V6.73365V6.73365Z" fill="white"/>
<path fill-rule="evenodd" clip-rule="evenodd" d="M44.2372 15.4607V15.3959C44.2372 12.8527 42.3023 10.6297 39.4506 10.6297C36.4968 10.6297 34.7312 12.7879 34.7312 15.3317V15.3959C34.7312 17.9402 36.6662 20.1616 39.5178 20.1616C42.4716 20.1616 44.2372 18.0049 44.2372 15.4607M29.6386 15.4607V15.3959C29.6386 10.437 33.8489 6.41223 39.5178 6.41223C45.1539 6.41223 49.3303 10.3722 49.3303 15.3317V15.3959C49.3303 20.3554 45.1195 24.3806 39.4506 24.3806C33.8145 24.3806 29.6386 20.4192 29.6386 15.4607" fill="white"/>
<mask id="mask0_1_54" style="mask-type:luminance" maskUnits="userSpaceOnUse" x="51" y="0" width="20" height="25">
<path fill-rule="evenodd" clip-rule="evenodd" d="M70.3409 0.48703H51.2266L51.2266 24.3158H70.3409V0.48703V0.48703Z" fill="white"/>
</mask>
<g mask="url(#mask0_1_54)">
<path fill-rule="evenodd" clip-rule="evenodd" d="M65.2478 15.3958V15.3321C65.2478 12.465 63.2456 10.5659 60.8348 10.5659C58.424 10.5659 56.3874 12.4334 56.3874 15.3321V15.3958C56.3874 18.2624 58.424 20.162 60.8348 20.162C63.2456 20.162 65.2478 18.2624 65.2478 15.3958M51.2266 15.3958V15.3321C51.2266 9.56736 55.1987 6.41214 59.5106 6.41214C62.2601 6.41214 63.958 7.60344 65.1805 8.98802V0.486786H70.3409V23.994H65.1805V21.5145C63.9236 23.1245 62.1929 24.3158 59.5106 24.3158C55.2669 24.3158 51.2266 21.1601 51.2266 15.3958" fill="white"/>
</g>
<path fill-rule="evenodd" clip-rule="evenodd" d="M92.2108 6.73366H97.3711V10.2117C98.4238 7.82808 100.121 6.28235 103.177 6.41185V11.5315H102.905C99.4765 11.5315 97.3711 13.4959 97.3711 17.6175V23.9942H92.2108V6.73366Z" fill="white"/>
<path fill-rule="evenodd" clip-rule="evenodd" d="M105.299 6.73365H110.46V9.18101C111.648 7.73217 113.176 6.41185 115.789 6.41185C119.694 6.41185 121.969 8.85872 121.969 12.8197V23.9942H116.809V14.3654C116.809 12.047 115.654 10.8557 113.685 10.8557C111.716 10.8557 110.46 12.047 110.46 14.3654V23.9942H105.299V6.73365Z" fill="white"/>
<path fill-rule="evenodd" clip-rule="evenodd" d="M124.326 4.83356H129.758V0.48703H124.326V4.83356Z" fill="white"/>
<path fill-rule="evenodd" clip-rule="evenodd" d="M124.462 23.9942H129.622V6.7337H124.462V23.9942Z" fill="white"/>
<path fill-rule="evenodd" clip-rule="evenodd" d="M81.2925 10.3403C83.3348 10.3403 84.657 11.6499 85.0619 13.6245H77.4374C77.9302 11.6231 79.28 10.3403 81.2925 10.3403M90.1529 15.7822C90.1529 10.8875 87.3695 6.41194 81.2925 6.41194C75.9962 6.41194 72.2951 10.4693 72.2951 15.3956V15.4609C72.2951 20.7417 76.3355 24.3803 81.8012 24.3803C85.0948 24.3803 87.5394 23.1574 89.2363 21.1603L86.2835 18.6808C84.8571 19.9359 83.6012 20.4515 81.8694 20.4515C79.5608 20.4515 77.9312 19.2928 77.4221 17.0704H90.0857C90.1196 16.62 90.1529 16.1687 90.1529 15.7822" fill="white"/>
<path fill-rule="evenodd" clip-rule="evenodd" d="M147.65 10.1795V6.7336H132.135V10.6945H141.233L131.829 20.5482V23.9941H134.404L147.65 10.1795Z" fill="white"/>
<path fill-rule="evenodd" clip-rule="evenodd" d="M157.703 20.4514C157.642 20.4514 157.582 20.447 157.522 20.4456L160.866 23.9236C162.591 23.3968 163.984 22.4382 165.07 21.1602L162.117 18.6808C160.691 19.9363 159.435 20.4514 157.703 20.4514" fill="white"/>
<path fill-rule="evenodd" clip-rule="evenodd" d="M153.271 13.6246C153.764 11.6232 155.114 10.3404 157.127 10.3404C159.169 10.3404 160.49 11.6495 160.895 13.6246H153.271ZM157.127 6.41205C153.311 6.41205 150.333 8.523 148.96 11.5424L154.276 17.0705H165.92C165.953 16.6202 165.987 16.1689 165.987 15.7823C165.987 10.8876 163.204 6.41205 157.127 6.41205V6.41205Z" fill="white"/>
<path fill-rule="evenodd" clip-rule="evenodd" d="M142.693 23.9995H147.65V20.0328H142.693V23.9995Z" fill="#FEC14B"/>
<path fill-rule="evenodd" clip-rule="evenodd" d="M0 36.7455V31.2889H1.31805V33.5055H3.59538V31.2889H4.91343V36.7455H3.59538V34.4792H1.31805V36.7455H0Z" fill="white"/>
<path fill-rule="evenodd" clip-rule="evenodd" d="M9.79179 35.8643C10.8178 35.8643 11.2972 35.0332 11.2972 34.0172C11.2972 33.0012 10.8029 32.1701 9.78409 32.1701C8.75808 32.1701 8.2787 33.0012 8.2787 34.0172C8.2787 35.0332 8.77297 35.8643 9.79179 35.8643M9.79179 31.211C11.6421 31.211 12.6306 32.4184 12.6306 34.0172C12.6306 35.6014 11.6493 36.8234 9.78409 36.8234C7.9343 36.8234 6.94525 35.616 6.94525 34.0172C6.94525 32.433 7.9266 31.211 9.79179 31.211" fill="white"/>
<path fill-rule="evenodd" clip-rule="evenodd" d="M20.8495 31.289V36.7456H19.5463V33.1434H19.5314L18.295 36.7456H17.1869L15.9509 33.1575H15.9361V36.7456H14.6627V31.289H16.4375L17.7638 35.2183H17.7787L19.0967 31.289H20.8495Z" fill="white"/>
<path fill-rule="evenodd" clip-rule="evenodd" d="M23.1063 36.7455V31.2889H27.1287V32.2553H24.4171V33.5128H26.7689V34.4719H24.4171V35.7791H27.181V36.7455H23.1063Z" fill="white"/>
<path fill-rule="evenodd" clip-rule="evenodd" d="M32.6438 36.7455V31.2889H36.2017V31.6794H33.1083V33.7972H35.8347V34.1876H33.1083V36.355H36.2541V36.7455H32.6438Z" fill="white"/>
<path fill-rule="evenodd" clip-rule="evenodd" d="M44.098 31.289V36.7456H43.6335V31.9H43.6186L41.5137 36.7456H41.0795L38.9746 31.9142H38.9597V36.7456H38.5029V31.289H39.1845L41.2966 36.1487H41.3115L43.4164 31.289H44.098Z" fill="white"/>
<path fill-rule="evenodd" clip-rule="evenodd" d="M49.0063 33.9675C49.5005 33.9675 49.9127 33.7046 49.9127 33.115C49.9127 32.5254 49.5005 32.2552 49.0063 32.2552H47.8381V33.9675H49.0063ZM49.1336 31.2888C50.2946 31.2888 51.2461 31.9359 51.2461 33.0936C51.2461 34.2591 50.3171 34.9338 49.111 34.9338H47.8381V36.7454H46.5195V31.2888H49.1336Z" fill="white"/>
<path fill-rule="evenodd" clip-rule="evenodd" d="M55.7869 35.8643C56.8129 35.8643 57.2923 35.0332 57.2923 34.0172C57.2923 33.0012 56.798 32.1701 55.7792 32.1701C54.7532 32.1701 54.2738 33.0012 54.2738 34.0172C54.2738 35.0332 54.7681 35.8643 55.7869 35.8643M55.7869 31.211C57.6372 31.211 58.6257 32.4184 58.6257 34.0172C58.6257 35.6014 57.6444 36.8234 55.7792 36.8234C53.9294 36.8234 52.9404 35.616 52.9404 34.0172C52.9404 32.433 53.9217 31.211 55.7869 31.211" fill="white"/>
<path fill-rule="evenodd" clip-rule="evenodd" d="M68.1777 31.289L66.5599 36.7456H65.1438L64.1481 33.03H64.1327L63.1293 36.7456H61.6839L60.0656 31.289H61.4442L62.4779 35.2037H62.4928L63.4511 31.289H64.8672L65.8259 35.1614H65.8408L66.8519 31.289H68.1777Z" fill="white"/>
<path fill-rule="evenodd" clip-rule="evenodd" d="M69.9778 36.7455V31.2889H74.0003V32.2553H71.2887V33.5128H73.6405V34.4719H71.2887V35.7791H74.0526V36.7455H69.9778Z" fill="white"/>
<path fill-rule="evenodd" clip-rule="evenodd" d="M77.3574 33.6765H78.5856C78.9978 33.6765 79.3422 33.4486 79.3422 32.9657C79.3422 32.4754 78.9978 32.2554 78.5856 32.2554H77.3574V33.6765ZM78.3834 34.6283H77.3574V36.7455H76.0388V31.289H78.7355C79.859 31.289 80.6679 31.8644 80.6679 32.8805C80.6679 33.5981 80.2481 34.1025 79.6193 34.3439L80.8327 36.7455H79.3868L78.3834 34.6283Z" fill="white"/>
<path fill-rule="evenodd" clip-rule="evenodd" d="M88.4446 31.289V36.7456H87.9806V31.9H87.9652L85.8603 36.7456H85.4261L83.3212 31.9142H83.3063V36.7456H82.8495V31.289H83.5312L85.6437 36.1487H85.6581L87.763 31.289H88.4446Z" fill="white"/>
<path fill-rule="evenodd" clip-rule="evenodd" d="M91.0311 36.7455V31.2889H94.589V31.6794H91.4951V33.7972H94.2215V34.1876H91.4951V36.355H94.6414V36.7455H91.0311Z" fill="white"/>
<path fill-rule="evenodd" clip-rule="evenodd" d="M101.376 31.289V36.7456H100.965L97.3618 32.0067H97.3469V36.7456H96.8901V31.289H97.3695L100.905 35.9501H100.92V31.289H101.376Z" fill="white"/>
<path fill-rule="evenodd" clip-rule="evenodd" d="M105.498 36.7455V31.6794H103.386V31.2889H108.075V31.6794H105.963V36.7455H105.498Z" fill="white"/>
<path fill-rule="evenodd" clip-rule="evenodd" d="M109.297 32.1191C109.317 32.1824 109.334 32.2102 109.372 32.2374C109.426 32.2803 109.514 32.3026 109.615 32.3026C109.773 32.3026 109.873 32.2355 109.873 32.1288C109.873 32.0544 109.82 32.0067 109.711 31.9789L109.461 31.9176C109.329 31.8845 109.262 31.8509 109.216 31.792C109.164 31.7306 109.139 31.659 109.139 31.5792C109.139 31.3587 109.323 31.2112 109.6 31.2112C109.74 31.2112 109.864 31.2482 109.958 31.3183C110.015 31.3626 110.044 31.4015 110.068 31.4775L109.845 31.5291C109.81 31.4351 109.733 31.3903 109.602 31.3903C109.467 31.3903 109.379 31.4497 109.379 31.5417C109.379 31.6143 109.437 31.6625 109.561 31.6922L109.783 31.7438C109.923 31.7788 110.007 31.8236 110.057 31.8957C110.099 31.9526 110.121 32.0193 110.121 32.0953C110.121 32.3304 109.915 32.4818 109.602 32.4818C109.439 32.4818 109.306 32.4429 109.201 32.3655C109.137 32.3153 109.104 32.2657 109.071 32.1658L109.297 32.1191Z" fill="white"/>
<path fill-rule="evenodd" clip-rule="evenodd" d="M111.358 32.4633V31.383L110.998 32.4633H110.875L110.514 31.383V32.4633H110.323V31.2296H110.689L110.961 32.0251L111.23 31.2296H111.598V32.4633H111.358Z" fill="white"/>
<path fill-rule="evenodd" clip-rule="evenodd" d="M167.453 7.44133C167.364 7.23004 167.256 7.16334 167.022 7.16334C166.807 7.16334 166.685 7.24075 166.685 7.37074C166.685 7.50851 166.774 7.56839 167.041 7.61756C167.413 7.69156 167.565 7.73684 167.691 7.81814C167.899 7.95203 168.01 8.1492 168.01 8.3746C168.01 8.62095 167.869 8.86388 167.647 9.00117C167.486 9.1 167.253 9.15258 166.993 9.15258C166.703 9.15258 166.47 9.08588 166.284 8.952C166.128 8.83564 166.057 8.73 165.987 8.50118L166.521 8.38483C166.592 8.61024 166.748 8.71247 167.022 8.71247C167.268 8.71247 167.42 8.61754 167.42 8.46613C167.42 8.32495 167.32 8.26214 166.99 8.19837C166.715 8.14579 166.555 8.09613 166.417 8.01531C166.224 7.90626 166.117 7.7125 166.117 7.48028C166.117 7.26168 166.202 7.07863 166.37 6.93793C166.536 6.79724 166.74 6.73346 167.019 6.73346C167.286 6.73346 167.502 6.79334 167.669 6.9131C167.798 7.00512 167.866 7.09664 167.943 7.28651L167.453 7.44133Z" fill="white"/>
<path fill-rule="evenodd" clip-rule="evenodd" d="M168.877 7.20195V9.11767H168.391V6.76866H169.293L169.727 8.17369L170.188 6.76866H171.09V9.11767H170.507V7.20195L169.884 9.11767H169.486L168.877 7.20195Z" fill="white"/>
</svg>
